<svg width="434" height="512" viewBox="0 0 434 512" fill="none" xmlns="http://www.w3.org/2000/svg">
<path d="M432.107 98.0018C432.107 91.0741 429.355 84.4302 424.456 79.5316C419.558 74.6329 412.914 71.8809 405.986 71.8809C333.474 71.8809 280.606 52.0291 234.842 7.46684C229.959 2.68079 223.395 0 216.557 0C209.72 0 203.156 2.68079 198.273 7.46684C152.457 52.0291 99.6403 71.8809 27.1288 71.8809C20.2011 71.8809 13.5571 74.6329 8.65851 79.5316C3.7599 84.4302 1.00788 91.0741 1.00788 98.0018C1.00788 110.122 1.00789 122.66 0.537711 135.982C-1.86541 262.877 -5.20889 436.685 207.99 510.555C213.539 512.482 219.576 512.482 225.125 510.555C438.324 436.685 434.98 262.877 432.577 135.877C432.316 122.66 432.107 110.122 432.107 98.0018ZM341.99 362.45C317.673 343.142 291.411 326.421 263.627 312.559C263.439 312.47 263.281 312.329 263.17 312.153C263.059 311.978 263 311.774 263 311.566V285.445C266.67 279.211 269.233 272.388 270.575 265.28C274.65 263.974 278.307 257.444 281.755 245.219C284.89 234.092 284.942 226.882 281.755 223.173C281.11 222.407 280.312 221.784 279.413 221.343C278.513 220.902 277.532 220.654 276.531 220.613C277.228 218.404 277.787 216.153 278.203 213.874C281.912 191.41 279.979 175.163 272.404 165.55C269.514 161.646 265.296 158.933 260.545 157.923C256.637 151.858 251.242 146.894 244.872 143.504C234.954 137.756 223.461 135.322 212.065 136.556C207.581 136.775 203.15 137.619 198.9 139.064C194.05 140.863 189.464 143.305 185.265 146.325C179.883 149.735 174.951 153.807 170.585 158.446C162.772 166.124 157.238 175.816 154.599 186.447C152.528 195.402 152.528 204.711 154.599 213.665C155.015 215.944 155.574 218.195 156.27 220.404C155.27 220.445 154.288 220.693 153.389 221.134C152.489 221.575 151.691 222.198 151.046 222.964C147.964 226.673 148.016 233.883 151.046 245.01C154.494 257.182 158.151 263.765 162.226 265.071C163.559 272.264 166.121 279.174 169.801 285.497V311.618C169.801 311.826 169.742 312.03 169.631 312.206C169.521 312.381 169.362 312.522 169.174 312.611C141.391 326.473 115.128 343.194 90.8115 362.502C49.5405 296.05 51.1077 213.404 52.5705 137.026C52.5705 132.377 52.5705 127.832 52.5705 123.339C117.925 119.212 170.846 99.3078 216.61 61.2758C262.373 99.3078 315.294 119.212 380.074 123.339C380.074 127.832 380.074 132.377 380.074 137.026C381.798 213.352 383.313 295.998 341.99 362.45Z" fill="black"/>
</svg>
