<svg width="34" height="43" viewBox="0 0 34 43" fill="none" xmlns="http://www.w3.org/2000/svg">
<path d="M34 3.80908V39.8091C34 40.6099 33.6875 41.3638 33.1211 41.9302C32.5547 42.4966 31.8008 42.8091 31 42.8091H11C10.1992 42.8091 9.44531 42.4966 8.87891 41.9302C8.31249 41.3638 8 40.6099 8 39.8091V25.8091C8 25.2563 8.44727 24.8091 9 24.8091C9.55273 24.8091 10 25.2563 10 25.8091V39.8091C10 40.0718 10.1064 40.3296 10.293 40.5161C10.4795 40.7026 10.7373 40.8091 11 40.8091H31C31.2627 40.8091 31.5205 40.7026 31.707 40.5161C31.8936 40.3296 32 40.0718 32 39.8091V3.80908C32 3.54639 31.8936 3.28857 31.707 3.10205C31.5205 2.91553 31.2627 2.80908 31 2.80908H11C10.7373 2.80908 10.4795 2.91553 10.293 3.10205C10.1064 3.28857 10 3.54639 10 3.80908V17.8091C10 18.3618 9.55273 18.8091 9 18.8091C8.44727 18.8091 8 18.3618 8 17.8091V3.80908C8 3.0083 8.31249 2.25439 8.87891 1.68799C9.44531 1.12158 10.1992 0.809082 11 0.809082H31C31.8008 0.809082 32.5547 1.12158 33.1211 1.68799C33.6875 2.25439 34 3.0083 34 3.80908Z" fill="black"/>
<path d="M5.70679 25.1021C6.09741 25.4927 6.09741 26.1255 5.70679 26.5161C5.51147 26.7114 5.25562 26.8091 4.99976 26.8091C4.7439 26.8091 4.48804 26.7114 4.29272 26.5161L0.294006 22.5174C0.201233 22.425 0.127625 22.314 0.0767822 22.191C-0.024292 21.9467 -0.024292 21.6715 0.0767822 21.4272C0.127686 21.3041 0.201233 21.1932 0.294006 21.1008L4.29272 17.1021C4.68335 16.7114 5.31616 16.7114 5.70679 17.1021C6.09741 17.4927 6.09741 18.1255 5.70679 18.5161L3.41382 20.8091H20.9998C21.5525 20.8091 21.9998 21.2563 21.9998 21.8091C21.9998 22.3618 21.5525 22.8091 20.9998 22.8091H3.41382L5.70679 25.1021Z" fill="black"/>
</svg>
