<svg width="754" height="512" viewBox="0 0 754 512" fill="none" xmlns="http://www.w3.org/2000/svg">
<path d="M720.865 103.278H583.161C565.371 103.278 550.931 117.718 550.931 135.394V447.653H477.572V32.1156C477.572 14.4404 463.132 0 445.342 0H307.639C289.848 0 275.523 14.4404 275.523 32.1156V447.653H202.05V169.935C202.05 152.145 187.61 137.705 169.935 137.705H32.1151C14.3247 137.705 0 152.145 0 169.935V479.885C0 497.56 14.3247 512 32.1151 512H720.865C738.656 512 753.096 497.56 753.096 479.885V135.394C753.096 117.718 738.656 103.278 720.865 103.278Z" fill="black"/>
</svg>
