<svg width="686" height="512" viewBox="0 0 686 512" fill="none" xmlns="http://www.w3.org/2000/svg">
<path fill-rule="evenodd" clip-rule="evenodd" d="M343.857 63.6772C392.252 63.6772 433.005 101.884 433.005 152.825C433.005 203.767 392.252 244.52 343.857 244.52C292.915 244.52 252.162 203.767 252.162 152.825C252.162 101.884 292.915 63.6772 343.857 63.6772ZM147.731 0C196.126 0 236.879 40.7534 236.879 91.6952C236.879 137.543 196.126 183.39 147.731 183.39C96.7893 183.39 56.0359 142.637 56.0359 91.6952C56.0359 40.7534 96.7893 0 147.731 0ZM132.449 191.032H160.467C201.22 191.032 239.426 208.861 262.35 239.426C208.861 264.897 170.655 320.933 170.655 384.61V448.287C114.619 453.382 53.4888 445.74 0 407.534V320.933C0 249.615 58.583 191.032 132.449 191.032ZM539.983 0C588.377 0 629.131 40.7534 629.131 91.6952C629.131 142.637 588.377 183.39 539.983 183.39C489.041 183.39 448.287 137.543 448.287 91.6952C448.287 40.7534 489.041 0 539.983 0ZM524.7 191.032H552.718C626.584 191.032 685.167 249.615 685.167 320.933V407.534C657.149 430.458 588.377 453.382 517.059 450.835V384.61C517.059 320.933 478.853 264.897 422.817 239.426C448.287 208.861 486.494 191.032 524.7 191.032ZM328.574 252.162H356.592C430.458 252.162 489.041 310.745 489.041 384.61V468.664C445.74 504.323 303.103 545.077 196.126 468.664V384.61C196.126 310.745 257.256 252.162 328.574 252.162Z" fill="black"/>
</svg>
