<svg width="460" height="512" viewBox="0 0 460 512" fill="none" xmlns="http://www.w3.org/2000/svg">
<path d="M88.2759 123.586H134.749L101.819 194.207H88.2757V211.862H335.448V194.518L354.389 153.897L423.724 264.828H0L88.2759 123.586ZM300.138 194.207H316.103L371.871 74.6213L211.862 0L121.301 194.207H300.138ZM278.404 282.483H0V494.345H254.466C239.19 480.273 227.446 462.798 220.189 443.337C212.932 423.877 210.365 402.98 212.697 382.342C215.029 361.704 222.194 341.906 233.611 324.556C245.027 307.205 260.374 292.791 278.404 282.483ZM459.034 397.241C459.034 419.938 452.304 442.126 439.694 460.998C427.084 479.87 409.161 494.579 388.192 503.264C367.223 511.95 344.149 514.223 321.888 509.795C299.627 505.367 279.179 494.437 263.129 478.388C247.08 462.339 236.15 441.891 231.722 419.63C227.294 397.369 229.567 374.295 238.253 353.325C246.939 332.356 261.647 314.433 280.519 301.823C299.391 289.213 321.579 282.483 344.276 282.483C374.712 282.483 403.901 294.574 425.422 316.095C446.943 337.616 459.034 366.806 459.034 397.241ZM419.181 353.552L406.697 341.07L319.31 428.449L281.854 391L269.37 403.482L319.31 453.413L419.181 353.552Z" fill="black"/>
</svg>
